<?xml version="1.0" standalone="no"?>
<!DOCTYPE svg PUBLIC "-//W3C//DTD SVG 20010904//EN"
 "http://www.w3.org/TR/2001/REC-SVG-20010904/DTD/svg10.dtd">
<svg version="1.0" xmlns="http://www.w3.org/2000/svg"
 width="1248.000000pt" height="832.000000pt" viewBox="0 0 1248.000000 832.000000"
 preserveAspectRatio="xMidYMid meet">

<g transform="translate(0.000000,832.000000) scale(0.100000,-0.100000)"
fill="#000000" stroke="none">
<path d="M6445 7245 c-176 -41 -377 -124 -605 -250 -72 -40 -89 -40 -210 -11
-84 20 -282 21 -374 1 -166 -35 -322 -117 -449 -235 -82 -75 -77 -36 -77 -619
0 -455 2 -521 15 -535 33 -33 95 -41 305 -40 222 0 286 8 603 78 377 84 891
262 1255 436 141 68 306 166 342 205 l24 25 -22 53 c-139 343 -272 656 -328
774 -29 61 -88 115 -143 131 -64 20 -224 13 -336 -13z"/>
<path d="M7445 6248 c-66 -5 -121 -11 -122 -12 -2 -1 20 -57 47 -124 54 -131
58 -156 35 -189 -38 -54 -321 -199 -596 -306 -276 -108 -503 -177 -874 -266
-390 -93 -635 -131 -855 -131 -238 0 -318 30 -339 129 l-6 29 -212 -133 c-260
-163 -298 -190 -366 -266 -157 -173 -147 -320 28 -403 53 -25 203 -66 242 -66
31 0 29 -8 -17 -78 -55 -82 -62 -86 -140 -87 -80 -1 -94 -10 -139 -90 -25 -44
-40 -58 -93 -84 -36 -18 -96 -60 -135 -94 -39 -34 -83 -70 -97 -80 -14 -10
-36 -37 -49 -60 -20 -38 -22 -55 -21 -167 2 -197 34 -354 120 -594 30 -82 54
-163 54 -180 0 -45 -24 -87 -116 -201 -95 -117 -142 -192 -186 -295 -28 -65
-32 -89 -36 -180 -4 -104 32 -544 64 -793 30 -239 101 -414 214 -528 265 -268
661 -193 1920 362 352 155 387 170 710 309 969 416 1803 701 2317 792 86 15
133 27 133 35 0 23 -100 263 -156 376 -115 230 -242 396 -486 638 -146 145
-171 174 -195 230 -75 175 -207 409 -269 475 -33 36 -47 44 -75 44 -31 0 -47
-13 -163 -132 -441 -454 -882 -995 -1416 -1738 -101 -140 -213 -295 -250 -345
-37 -49 -102 -143 -145 -208 -43 -64 -80 -115 -82 -113 -3 2 11 44 30 93 19
48 74 195 123 326 l89 239 112 141 c62 78 113 147 113 154 0 9 -108 310 -145
405 -10 24 -23 13 -45 -36 -87 -201 -263 -546 -392 -771 -185 -321 -281 -502
-409 -770 -32 -67 -22 -12 27 148 102 337 186 538 351 842 131 241 375 680
384 690 5 5 9 13 9 17 0 5 -35 -17 -77 -48 -363 -268 -784 -695 -1029 -1045
-31 -43 -60 -81 -65 -84 -5 -4 -9 174 -9 453 0 252 -3 461 -6 465 -4 3 -18
-11 -31 -31 -128 -190 -341 -379 -563 -500 -144 -79 -368 -162 -381 -141 -9
15 -31 207 -25 218 3 4 28 11 54 15 63 8 199 54 297 100 210 98 421 279 538
460 28 42 32 57 32 115 0 64 3 72 57 162 137 226 149 281 146 649 -3 225 0
291 14 362 16 83 40 148 56 148 4 1 50 7 102 14 52 8 97 12 99 10 4 -4 -5 -40
-43 -168 -30 -101 -33 -158 -10 -180 17 -18 34 -22 116 -31 47 -5 62 -12 83
-36 22 -27 25 -40 25 -105 0 -75 13 -117 43 -143 11 -9 13 -21 7 -48 -11 -47
0 -68 49 -92 48 -25 58 -52 64 -171 4 -100 17 -138 59 -177 60 -56 167 -67
357 -36 120 19 142 13 176 -49 l19 -36 131 126 c284 276 605 515 997 745 81
47 175 100 210 118 35 17 65 33 67 35 3 2 -6 23 -18 45 -26 46 -25 90 9 319
40 267 53 420 47 572 -6 169 -12 158 106 223 102 56 278 176 364 247 95 80
198 206 219 271 23 69 13 125 -32 171 -110 113 -359 154 -749 124z m-2754
-1869 c-6 -24 -11 -60 -11 -79 0 -41 -27 -151 -40 -164 -5 -5 -20 3 -34 17
-31 31 -34 81 -10 130 25 48 95 149 100 144 3 -2 0 -24 -5 -48z"/>
</g>
</svg>
